<?xml version="1.0" standalone="no"?>
<!DOCTYPE svg PUBLIC "-//W3C//DTD SVG 20010904//EN"
 "http://www.w3.org/TR/2001/REC-SVG-20010904/DTD/svg10.dtd">
<svg version="1.0" xmlns="http://www.w3.org/2000/svg"
 width="410.000000pt" height="410.000000pt" viewBox="0 0 410.000000 410.000000"
 preserveAspectRatio="xMidYMid meet">
<metadata>
Created by potrace 1.14, written by Peter Selinger 2001-2017
</metadata>
<g transform="translate(0.000000,410.000000) scale(0.100000,-0.100000)"
fill="#000000" stroke="none">
<path d="M1929 3845 c-25 -8 -64 -27 -86 -42 -56 -38 -1342 -1225 -1371 -1264
-40 -58 -24 -122 40 -155 41 -21 81 -12 135 32 30 24 44 31 47 22 3 -7 84
-353 182 -768 97 -415 185 -779 196 -808 27 -71 100 -144 173 -171 50 -19 77
-21 270 -21 l215 0 0 -181 0 -181 34 -34 34 -34 252 0 252 0 34 34 34 34 0
181 0 181 215 0 c193 0 220 2 270 21 73 27 146 100 173 171 11 29 99 393 196
808 98 415 179 761 182 768 3 9 17 2 47 -22 54 -44 94 -53 135 -32 33 17 62
61 62 93 0 10 -8 32 -17 50 -10 17 -321 310 -691 651 -757 699 -725 674 -877
679 -59 2 -106 -2 -136 -12z m206 -219 c19 -13 873 -796 1031 -947 l62 -59
-198 -841 c-178 -757 -201 -845 -224 -868 l-26 -26 -730 0 -730 0 -25 26 c-24
23 -46 111 -220 850 -107 453 -196 832 -199 842 -6 23 1072 1023 1118 1037 39
12 113 4 141 -14z"/>
<path d="M1940 2574 c-195 -42 -366 -207 -409 -394 -16 -68 -13 -209 5 -271
68 -233 275 -389 516 -389 237 0 444 157 512 389 18 62 21 203 5 271 -20 88
-69 172 -143 246 -81 81 -163 126 -271 149 -85 18 -130 18 -215 -1z"/>
</g>
</svg>
